<svg xmlns="http://www.w3.org/2000/svg" width="304" height="304" viewBox="0 0 304 304">
<g>
<path d="M 0.00 0.00 L 304.00 0.00 L 304.00 304.00 L 0.00 304.00 ZM 118.31 216.92 C120.61,218.06 124.43,219.00 126.79,219.00 L 131.09 219.00 L 131.00 203.25 C130.95,194.59 130.93,186.94 130.95,186.25 C130.99,185.35 133.34,185.00 139.25,185.01 C150.24,185.01 154.05,186.21 158.40,191.02 C160.38,193.21 162.21,195.00 162.47,195.00 C162.73,195.00 163.64,193.65 164.49,192.01 C166.60,187.94 172.69,185.00 179.01,185.00 C186.70,185.00 193.03,189.18 194.53,195.25 C195.18,197.84 195.02,198.00 191.83,198.00 C189.32,198.00 187.76,197.22 185.81,195.00 C182.37,191.07 176.15,190.76 172.57,194.34 C168.02,198.89 168.44,211.09 173.25,214.46 C178.16,217.90 185.47,215.97 187.32,210.75 C187.84,209.27 187.32,209.00 183.97,209.00 C180.23,209.00 180.00,208.83 180.00,206.00 L 180.00 203.00 L 187.75 203.00 L 195.50 203.00 L 195.16 208.75 L 194.82 214.50 L 198.49 211.00 C205.84,204.00 219.94,179.71 219.99,173.98 C219.99,173.14 218.42,171.60 216.48,170.56 C211.35,167.80 204.24,159.76 201.36,153.47 C199.44,149.28 198.34,148.00 196.68,148.01 C188.58,148.02 154.18,150.31 143.00,151.57 C121.20,154.03 101.43,158.43 89.74,163.43 C86.37,164.87 86.04,165.32 86.63,167.77 C88.13,174.01 95.40,190.54 97.61,192.76 C98.38,193.52 99.00,194.79 99.00,195.57 C99.00,196.36 99.38,197.00 99.84,197.00 C100.30,197.00 101.16,198.01 101.75,199.25 C104.48,205.02 113.32,214.45 118.31,216.92 ZM 143.91 123.92 C151.38,124.35 166.99,124.77 178.60,124.85 L 199.70 125.00 L 201.60 120.76 C202.64,118.43 206.33,113.63 209.80,110.09 L 216.09 103.66 L 211.30 98.79 C203.91,91.28 197.59,88.69 185.50,88.22 C175.85,87.85 175.10,87.98 164.16,91.92 L 152.82 96.01 L 145.66 93.44 C131.38,88.34 128.72,87.75 121.85,88.24 C109.58,89.12 96.13,97.61 89.95,108.39 C88.34,111.20 87.01,114.03 87.01,114.67 C86.99,117.34 118.54,122.47 143.91,123.92 ZM 83.92 156.28 L 84.91 158.90 L 90.76 156.52 C107.18,149.85 136.33,145.18 175.00,143.03 C185.18,142.46 194.51,142.00 195.75,142.00 C197.81,142.00 198.00,141.54 198.00,136.50 L 198.00 131.00 L 180.25 130.99 C141.54,130.97 104.64,127.24 85.85,121.44 C84.48,121.02 83.98,122.20 82.96,128.21 C81.65,135.98 82.19,151.74 83.92,156.28 ZM 151.90 83.38 C151.99,85.01 152.60,85.19 156.54,84.75 C172.04,83.00 186.66,67.52 187.83,51.60 L 188.26 45.70 L 183.88 46.39 C177.15,47.45 168.01,52.18 162.69,57.36 C155.48,64.38 151.40,74.20 151.90,83.38 ZM 139.00 203.38 C139.00,209.77 139.34,214.98 139.75,214.96 C140.16,214.95 143.43,214.12 147.00,213.12 C153.07,211.43 153.56,211.08 154.39,207.81 C155.49,203.46 154.51,197.85 152.13,194.92 C150.77,193.23 148.96,192.58 144.67,192.22 L 139.00 191.75 ZM 192.72 256.72 C193.17,257.89 194.53,258.12 198.82,257.77 C203.26,257.40 204.79,256.78 206.67,254.60 C209.73,251.03 209.86,244.36 206.93,240.63 C205.10,238.32 204.14,238.00 198.93,238.00 L 193.00 238.00 L 192.92 244.75 C192.88,248.46 192.69,252.34 192.50,253.36 C192.30,254.38 192.41,255.89 192.72,256.72 ZM 138.67 257.33 C140.21,258.88 141.00,257.75 141.00,254.00 C141.00,250.41 141.25,250.00 143.48,250.00 C145.37,250.00 146.45,250.96 148.00,254.00 C149.12,256.20 150.41,258.00 150.85,258.00 C152.75,258.00 152.80,256.52 151.00,252.99 C149.10,249.28 149.10,249.22 151.04,247.46 C153.21,245.50 153.54,242.87 151.96,239.93 C151.11,238.33 149.83,238.00 144.46,238.00 L 138.00 238.00 L 138.00 247.33 C138.00,252.47 138.30,256.97 138.67,257.33 ZM 78.53 256.75 C78.75,257.44 79.57,258.00 80.35,258.00 C81.25,258.00 82.40,255.49 83.57,251.00 C84.57,247.15 85.72,244.00 86.12,244.00 C86.53,244.00 87.59,246.59 88.48,249.75 C90.81,258.06 90.88,258.21 92.22,257.76 C93.41,257.36 99.29,238.96 98.49,238.16 C96.98,236.65 95.09,239.72 94.02,245.42 C93.33,249.04 92.47,252.00 92.11,252.00 C91.74,252.00 90.63,248.85 89.64,245.00 C87.16,235.37 85.11,235.42 82.60,245.16 C80.57,253.05 79.97,252.87 77.95,243.75 C77.18,240.24 76.16,238.00 75.34,238.00 C74.60,238.00 74.00,238.53 74.00,239.19 C74.00,240.20 77.31,253.06 78.53,256.75 ZM 215.50 256.79 C220.70,259.78 227.44,256.42 228.63,250.25 L 229.25 247.00 L 224.54 247.00 C219.35,247.00 218.52,249.10 223.36,250.00 C225.94,250.48 225.99,250.60 224.47,252.75 C220.91,257.80 214.00,254.45 214.00,247.67 C214.00,240.54 219.77,237.56 224.68,242.17 C227.25,244.58 228.51,244.17 227.57,241.23 C226.90,239.12 223.06,237.00 219.90,237.00 C215.95,237.00 212.13,239.87 211.09,243.62 C209.49,249.44 211.10,254.27 215.50,256.79 ZM 119.74 257.41 C120.94,258.61 121.83,257.92 122.85,255.00 C123.77,252.35 124.36,252.00 127.85,252.00 C131.37,252.00 131.92,252.34 132.88,255.09 C133.47,256.79 134.45,258.02 135.05,257.82 C136.61,257.30 136.47,256.54 132.94,246.69 C130.28,239.24 129.49,237.93 127.78,238.19 C126.23,238.43 125.00,240.62 122.46,247.66 C120.64,252.70 119.42,257.09 119.74,257.41 ZM 174.00 256.55 C174.00,259.11 176.07,258.09 177.15,255.00 C178.07,252.35 178.66,252.00 182.15,252.00 C185.64,252.00 186.23,252.35 187.15,255.00 C188.17,257.92 189.06,258.61 190.26,257.41 C190.58,257.09 189.36,252.70 187.54,247.66 C185.01,240.65 183.76,238.43 182.23,238.20 C180.55,237.94 179.73,239.26 177.11,246.50 C175.40,251.23 174.00,255.76 174.00,256.55 ZM 204.00 253.00 C202.76,254.24 200.67,255.00 198.50,255.00 L 195.00 255.00 L 195.00 240.00 L 198.50 240.00 C200.67,240.00 202.76,240.76 204.00,242.00 C205.24,243.24 206.00,245.33 206.00,247.50 C206.00,249.67 205.24,251.76 204.00,253.00 ZM 155.00 238.00 L 155.00 258.10 L 161.17 257.80 C169.04,257.42 170.70,255.00 163.08,255.00 C158.10,255.00 158.00,254.94 158.00,252.00 C158.00,249.11 158.17,249.00 162.50,249.00 C165.83,249.00 167.00,248.61 167.00,247.50 C167.00,246.39 165.83,246.00 162.50,246.00 C158.17,246.00 158.00,245.89 158.00,243.00 C158.00,240.07 158.11,240.00 163.00,240.00 C165.75,240.00 168.00,239.55 168.00,239.00 C168.00,238.44 165.17,238.00 161.50,238.00 ZM 101.00 238.00 L 101.00 258.00 L 107.00 258.00 C111.67,258.00 113.00,257.67 113.00,256.50 C113.00,255.39 111.83,255.00 108.50,255.00 C104.19,255.00 104.00,254.88 104.00,252.06 C104.00,249.32 104.29,249.09 108.17,248.81 C114.14,248.37 114.49,246.00 108.58,246.00 C104.16,246.00 104.00,245.90 104.00,243.00 C104.00,240.11 104.17,240.00 108.50,240.00 C110.97,240.00 113.00,239.55 113.00,239.00 C113.00,238.44 110.33,238.00 107.00,238.00 ZM 146.68 247.39 C141.91,248.67 141.00,248.02 141.00,243.33 C141.00,240.20 141.20,240.00 144.46,240.00 C150.02,240.00 151.82,246.01 146.68,247.39 ZM 130.22 249.44 C129.92,249.75 128.59,250.00 127.27,250.00 C125.46,250.00 124.99,249.57 125.35,248.25 C126.86,242.83 127.20,242.00 127.90,242.00 C128.87,242.00 130.97,248.70 130.22,249.44 ZM 184.43 249.11 C183.82,250.09 180.65,250.32 179.78,249.44 C179.05,248.72 181.12,242.00 182.07,242.00 C183.10,242.00 185.10,248.04 184.43,249.11 Z" fill="rgb(0,0,0)"/>
<path d="M 118.31 216.92 C113.32,214.45 104.48,205.02 101.75,199.25 C101.16,198.01 100.30,197.00 99.84,197.00 C99.38,197.00 99.00,196.36 99.00,195.57 C99.00,194.79 98.38,193.52 97.61,192.76 C96.44,191.59 93.86,186.41 91.46,180.87 C91.99,182.07 92.53,183.28 93.08,184.44 C94.68,187.84 95.58,188.82 96.38,188.02 C96.98,187.42 97.48,186.15 97.49,185.21 C97.50,183.34 95.85,181.00 94.92,181.56 C94.60,181.75 94.29,181.37 94.25,180.71 C94.20,180.04 93.92,178.47 93.63,177.20 C92.94,174.25 95.43,173.18 97.87,175.38 C98.97,176.38 101.42,177.00 104.22,177.00 C107.92,177.00 109.40,176.43 112.00,174.00 C114.71,171.47 116.02,171.00 120.37,171.00 C124.42,171.00 126.07,170.49 128.11,168.60 C130.82,166.09 131.08,166.04 153.00,164.12 C158.77,163.61 163.61,163.15 163.75,163.10 C163.89,163.04 164.00,161.91 164.00,160.57 C164.00,157.67 166.48,156.63 173.00,156.81 C178.82,156.98 185.96,155.18 188.50,152.92 C189.60,151.94 192.52,150.92 195.00,150.65 C197.02,150.43 198.87,150.21 199.62,150.12 C200.14,150.94 200.70,152.03 201.36,153.47 C204.24,159.76 211.35,167.80 216.48,170.56 C218.42,171.60 219.99,173.14 219.99,173.98 C219.94,179.71 205.84,204.00 198.49,211.00 L 194.82 214.50 L 195.16 208.75 L 195.50 203.00 L 187.75 203.00 L 180.00 203.00 L 180.00 206.00 C180.00,208.83 180.23,209.00 183.97,209.00 C187.32,209.00 187.84,209.27 187.32,210.75 C185.47,215.97 178.16,217.90 173.25,214.46 C168.44,211.09 168.02,198.89 172.57,194.34 C176.15,190.76 182.37,191.07 185.81,195.00 C187.76,197.22 189.32,198.00 191.83,198.00 C195.02,198.00 195.18,197.84 194.53,195.25 C193.03,189.18 186.70,185.00 179.01,185.00 C172.69,185.00 166.60,187.94 164.49,192.01 C163.64,193.65 162.73,195.00 162.47,195.00 C162.21,195.00 160.38,193.21 158.40,191.02 C154.05,186.21 150.24,185.01 139.25,185.01 C133.34,185.00 130.99,185.35 130.95,186.25 C130.93,186.94 130.95,194.59 131.00,203.25 L 131.09 219.00 L 126.79 219.00 C124.43,219.00 120.61,218.06 118.31,216.92 ZM 139.00 203.38 L 139.00 191.75 L 144.67 192.22 C148.96,192.58 150.77,193.23 152.13,194.92 C154.51,197.85 155.49,203.46 154.39,207.81 C153.56,211.08 153.07,211.43 147.00,213.12 C143.43,214.12 140.16,214.95 139.75,214.96 C139.34,214.98 139.00,209.77 139.00,203.38 ZM 192.72 256.72 C192.41,255.89 192.30,254.38 192.50,253.36 C192.69,252.34 192.88,248.46 192.92,244.75 L 193.00 238.00 L 198.93 238.00 C204.14,238.00 205.10,238.32 206.93,240.63 C209.86,244.36 209.73,251.03 206.67,254.60 C204.79,256.78 203.26,257.40 198.82,257.77 C194.53,258.12 193.17,257.89 192.72,256.72 ZM 138.67 257.33 C138.30,256.97 138.00,252.47 138.00,247.33 L 138.00 238.00 L 144.46 238.00 C149.83,238.00 151.11,238.33 151.96,239.93 C153.54,242.87 153.21,245.50 151.04,247.46 C149.10,249.22 149.10,249.28 151.00,252.99 C152.80,256.52 152.75,258.00 150.85,258.00 C150.41,258.00 149.12,256.20 148.00,254.00 C146.45,250.96 145.37,250.00 143.48,250.00 C141.25,250.00 141.00,250.41 141.00,254.00 C141.00,257.75 140.21,258.88 138.67,257.33 ZM 78.53 256.75 C77.31,253.06 74.00,240.20 74.00,239.19 C74.00,238.53 74.60,238.00 75.34,238.00 C76.16,238.00 77.18,240.24 77.95,243.75 C79.97,252.87 80.57,253.05 82.60,245.16 C85.11,235.42 87.16,235.37 89.64,245.00 C90.63,248.85 91.74,252.00 92.11,252.00 C92.47,252.00 93.33,249.04 94.02,245.42 C95.09,239.72 96.98,236.65 98.49,238.16 C99.29,238.96 93.41,257.36 92.22,257.76 C90.88,258.21 90.81,258.06 88.48,249.75 C87.59,246.59 86.53,244.00 86.12,244.00 C85.72,244.00 84.57,247.15 83.57,251.00 C82.40,255.49 81.25,258.00 80.35,258.00 C79.57,258.00 78.75,257.44 78.53,256.75 ZM 215.50 256.79 C211.10,254.27 209.49,249.44 211.09,243.62 C212.13,239.87 215.95,237.00 219.90,237.00 C223.06,237.00 226.90,239.12 227.57,241.23 C228.51,244.17 227.25,244.58 224.68,242.17 C219.77,237.56 214.00,240.54 214.00,247.67 C214.00,254.45 220.91,257.80 224.47,252.75 C225.99,250.60 225.94,250.48 223.36,250.00 C218.52,249.10 219.35,247.00 224.54,247.00 L 229.25 247.00 L 228.63 250.25 C227.44,256.42 220.70,259.78 215.50,256.79 ZM 119.74 257.41 C119.42,257.09 120.64,252.70 122.46,247.66 C125.00,240.62 126.23,238.43 127.78,238.19 C129.49,237.93 130.28,239.24 132.94,246.69 C136.47,256.54 136.61,257.30 135.05,257.82 C134.45,258.02 133.47,256.79 132.88,255.09 C131.92,252.34 131.37,252.00 127.85,252.00 C124.36,252.00 123.77,252.35 122.85,255.00 C121.83,257.92 120.94,258.61 119.74,257.41 ZM 174.00 256.55 C174.00,255.76 175.40,251.23 177.11,246.50 C179.73,239.26 180.55,237.94 182.23,238.20 C183.76,238.43 185.01,240.65 187.54,247.66 C189.36,252.70 190.58,257.09 190.26,257.41 C189.06,258.61 188.17,257.92 187.15,255.00 C186.23,252.35 185.64,252.00 182.15,252.00 C178.66,252.00 178.07,252.35 177.15,255.00 C176.07,258.09 174.00,259.11 174.00,256.55 ZM 204.00 253.00 C205.24,251.76 206.00,249.67 206.00,247.50 C206.00,245.33 205.24,243.24 204.00,242.00 C202.76,240.76 200.67,240.00 198.50,240.00 L 195.00 240.00 L 195.00 255.00 L 198.50 255.00 C200.67,255.00 202.76,254.24 204.00,253.00 ZM 155.00 238.00 L 161.50 238.00 C165.17,238.00 168.00,238.44 168.00,239.00 C168.00,239.55 165.75,240.00 163.00,240.00 C158.11,240.00 158.00,240.07 158.00,243.00 C158.00,245.89 158.17,246.00 162.50,246.00 C165.83,246.00 167.00,246.39 167.00,247.50 C167.00,248.61 165.83,249.00 162.50,249.00 C158.17,249.00 158.00,249.11 158.00,252.00 C158.00,254.94 158.10,255.00 163.08,255.00 C170.70,255.00 169.04,257.42 161.17,257.80 L 155.00 258.10 ZM 101.00 238.00 L 107.00 238.00 C110.33,238.00 113.00,238.44 113.00,239.00 C113.00,239.55 110.97,240.00 108.50,240.00 C104.17,240.00 104.00,240.11 104.00,243.00 C104.00,245.90 104.16,246.00 108.58,246.00 C114.49,246.00 114.14,248.37 108.17,248.81 C104.29,249.09 104.00,249.32 104.00,252.06 C104.00,254.88 104.19,255.00 108.50,255.00 C111.83,255.00 113.00,255.39 113.00,256.50 C113.00,257.67 111.67,258.00 107.00,258.00 L 101.00 258.00 ZM 146.68 247.39 C151.82,246.01 150.02,240.00 144.46,240.00 C141.20,240.00 141.00,240.20 141.00,243.33 C141.00,248.02 141.91,248.67 146.68,247.39 ZM 130.22 249.44 C130.97,248.70 128.87,242.00 127.90,242.00 C127.20,242.00 126.86,242.83 125.35,248.25 C124.99,249.57 125.46,250.00 127.27,250.00 C128.59,250.00 129.92,249.75 130.22,249.44 ZM 184.43 249.11 C185.10,248.04 183.10,242.00 182.07,242.00 C181.12,242.00 179.05,248.72 179.78,249.44 C180.65,250.32 183.82,250.09 184.43,249.11 ZM 93.08 168.55 C92.57,168.23 92.00,168.68 91.83,169.54 C91.55,170.84 91.23,170.89 89.89,169.80 C89.00,169.09 88.01,167.71 87.67,166.75 C86.88,164.48 90.21,164.35 92.43,166.57 C94.16,168.30 94.53,169.45 93.08,168.55 ZM 198.32 148.58 C195.96,148.18 189.54,148.31 177.37,148.94 C176.11,149.01 174.87,149.08 173.63,149.15 C183.66,148.50 192.95,148.01 196.68,148.01 C197.28,148.00 197.81,148.17 198.32,148.58 ZM 154.57 150.52 C143.63,151.48 133.79,152.67 125.01,154.12 C130.75,153.13 136.79,152.27 143.00,151.57 C145.72,151.27 149.82,150.90 154.57,150.52 ZM 87.57 170.93 C87.16,169.72 86.84,168.64 86.63,167.77 C86.83,168.62 87.16,169.70 87.57,170.93 Z" fill="rgb(245,215,187)"/>
<path d="M 93.08 184.44 C90.23,178.38 87.46,171.22 86.63,167.77 C86.04,165.32 86.37,164.87 89.74,163.43 C107.48,155.85 136.18,151.11 177.37,148.94 C192.27,148.16 198.56,148.16 199.32,148.92 C199.92,149.52 200.20,150.03 199.95,150.08 C199.70,150.12 197.48,150.38 195.00,150.65 C192.52,150.92 189.60,151.94 188.50,152.92 C185.96,155.18 178.82,156.98 173.00,156.81 C166.48,156.63 164.00,157.67 164.00,160.57 C164.00,161.91 163.89,163.04 163.75,163.10 C163.61,163.15 158.77,163.61 153.00,164.12 C131.08,166.04 130.82,166.09 128.11,168.60 C126.07,170.49 124.42,171.00 120.37,171.00 C116.02,171.00 114.71,171.47 112.00,174.00 C109.40,176.43 107.92,177.00 104.22,177.00 C101.42,177.00 98.97,176.38 97.87,175.38 C95.43,173.18 92.94,174.25 93.63,177.20 C93.92,178.47 94.20,180.04 94.25,180.71 C94.29,181.37 94.60,181.75 94.92,181.56 C95.85,181.00 97.50,183.34 97.49,185.21 C97.48,186.15 96.98,187.42 96.38,188.02 C95.58,188.82 94.68,187.84 93.08,184.44 ZM 93.08 168.55 C94.53,169.45 94.16,168.30 92.43,166.57 C90.21,164.35 86.88,164.48 87.67,166.75 C88.01,167.71 89.00,169.09 89.89,169.80 C91.23,170.89 91.55,170.84 91.83,169.54 C92.00,168.68 92.57,168.23 93.08,168.55 ZM 83.92 156.28 C82.19,151.74 81.65,135.98 82.96,128.21 C83.98,122.20 84.48,121.02 85.85,121.44 C104.64,127.24 141.54,130.97 180.25,130.99 L 198.00 131.00 L 198.00 136.50 C198.00,141.54 197.81,142.00 195.75,142.00 C194.51,142.00 185.18,142.46 175.00,143.03 C136.33,145.18 107.18,149.85 90.76,156.52 L 84.91 158.90 L 83.92 156.28 ZM 143.91 123.92 C118.54,122.47 86.99,117.34 87.01,114.67 C87.01,114.03 88.34,111.20 89.95,108.39 C96.13,97.61 109.58,89.12 121.85,88.24 C128.72,87.75 131.38,88.34 145.66,93.44 L 152.82 96.01 L 164.16 91.92 C175.10,87.98 175.85,87.85 185.50,88.22 C197.59,88.69 203.91,91.28 211.30,98.79 L 216.09 103.66 L 209.80 110.09 C206.33,113.63 202.64,118.43 201.60,120.76 L 199.70 125.00 L 178.60 124.85 C166.99,124.77 151.38,124.35 143.91,123.92 ZM 151.90 83.38 C151.40,74.20 155.48,64.38 162.69,57.36 C168.01,52.18 177.15,47.45 183.88,46.39 L 188.26 45.70 L 187.83 51.60 C186.66,67.52 172.04,83.00 156.54,84.75 C152.60,85.19 151.99,85.01 151.90,83.38 Z" fill="rgb(251,235,219)"/>
</g>
</svg>